<svg width="190" height="32" viewBox="0 0 190 32" fill="none" xmlns="http://www.w3.org/2000/svg">
<path d="M70.6269 11.1256H59.4352V14.4256H67.3938C66.9959 19.0756 63.1161 21.1256 59.485 21.1256C54.8093 21.1256 50.7306 17.4256 50.7306 12.2756C50.7306 7.22559 54.6104 3.32559 59.485 3.32559C63.2653 3.32559 65.4539 5.72559 65.4539 5.72559L67.742 3.32559C67.742 3.32559 64.7575 0.0255868 59.3358 0.0255868C52.4218 -0.0244132 47.0995 5.82559 47.0995 12.1756C47.0995 18.3756 52.1233 24.4256 59.5347 24.4256C66.0508 24.4256 70.8259 19.9756 70.8259 13.3256C70.8259 11.9256 70.6269 11.1256 70.6269 11.1256Z" fill="white"/>
<path fill-rule="evenodd" clip-rule="evenodd" d="M71.8705 16.4755C71.8705 12.2755 75.1534 8.67554 79.7295 8.67554C83.5098 8.67554 87.5886 11.3755 87.6383 16.5755C87.6383 21.1755 84.1565 24.4255 79.829 24.4255C75.0539 24.4255 71.8705 20.7755 71.8705 16.4755ZM84.1565 16.5755C84.1565 13.6755 82.0176 11.8255 79.7793 11.8255C77.2425 11.8255 75.3026 13.8255 75.3523 16.5255C75.3523 19.3255 77.2922 21.3255 79.7793 21.3255C82.0674 21.3255 84.1565 19.4755 84.1565 16.5755Z" fill="white"/>
<path fill-rule="evenodd" clip-rule="evenodd" d="M88.9813 16.4755C88.9813 12.2755 92.2642 8.67554 96.8404 8.67554C100.621 8.67554 104.699 11.3755 104.749 16.5755C104.749 21.1755 101.267 24.4255 96.9399 24.4255C92.1648 24.4255 88.9813 20.7755 88.9813 16.4755ZM101.267 16.5755C101.267 13.6755 99.1285 11.8255 96.8902 11.8255C94.3534 11.8255 92.4135 13.8255 92.4632 16.5255C92.4632 19.3255 94.4031 21.3255 96.8902 21.3255C99.1782 21.3255 101.267 19.4755 101.267 16.5755Z" fill="white"/>
<path fill-rule="evenodd" clip-rule="evenodd" d="M106.092 16.5756C106.092 12.4256 109.375 8.72559 113.603 8.72559C115.444 8.72559 116.836 9.42559 117.732 10.5256V9.17559H121.015V23.3256C121.015 28.8756 117.831 31.5256 113.653 31.5256C109.823 31.5256 107.684 29.1756 106.639 26.9256L109.674 25.6756C110.121 26.6756 111.315 28.4756 113.703 28.4756C116.19 28.4756 117.831 26.8256 117.831 24.1256V22.5756C116.886 23.6256 115.742 24.4756 113.504 24.4756C109.922 24.4756 106.092 21.2756 106.092 16.5756ZM118.08 16.6256C118.08 13.6256 115.941 11.8256 113.902 11.8256C111.713 11.8256 109.574 13.5756 109.524 16.6756C109.524 19.5256 111.613 21.3756 113.852 21.3756C115.991 21.3756 118.08 19.7256 118.08 16.6256Z" fill="white"/>
<path fill-rule="evenodd" clip-rule="evenodd" d="M128.426 16.5255C128.426 11.8255 131.759 8.67554 135.738 8.67554C138.822 8.67554 141.16 10.7755 142.204 13.1755L142.751 14.4755L132.256 18.8755C132.903 20.0755 133.897 21.2755 136.086 21.2755C138.026 21.2755 139.22 20.2255 139.916 19.1255L142.652 20.9755C141.458 22.5755 139.369 24.4255 136.086 24.4255C132.156 24.4255 128.426 21.4755 128.426 16.5255ZM138.772 13.4255C138.275 12.4755 137.28 11.7255 135.837 11.7255C133.599 11.7255 131.41 14.0755 131.808 16.3755L138.772 13.4255Z" fill="white"/>
<path d="M123.452 23.9756H126.884V0.775635H123.452V23.9756Z" fill="white"/>
</svg>
